<svg xmlns="http://www.w3.org/2000/svg" width="398" height="72.676" viewBox="0 0 641.65 117.21">
    <defs>
        <style>
            .cls-1 {
                fill: #dc0d15;
            }

            .cls-2 {
                fill: #213a8f;
            }

            .cls-3 {
                fill: #fbba00;
            }

            .cls-4 {
                fill: #FFF;
            }
        </style>
    </defs>
    <title>Logo MovieCenter Header</title>
    <g id="Capa_2" data-name="Capa 2">
        <g id="Layer_1" data-name="Layer 1">
            <rect class="cls-1" y="84.04" width="5.72" height="5.72" />
            <rect class="cls-1" x="9.62" y="84.04" width="5.48" height="5.48" />
            <rect class="cls-1" x="19.23" y="84.04" width="5.48" height="5.48" />
            <rect class="cls-1" x="28.85" y="84.04" width="5.49" height="5.48" />
            <rect class="cls-1" x="38.47" y="84.04" width="5.48" height="5.48" />
            <rect class="cls-1" x="48.08" y="84.04" width="5.48" height="5.48" />
            <rect class="cls-1" x="57.7" y="84.04" width="5.48" height="5.48" />
            <rect class="cls-1" x="67.32" y="84.04" width="5.49" height="5.48" />
            <rect class="cls-1" x="76.94" y="84.04" width="5.48" height="5.48" />
            <path class="cls-1"
                d="M60.81,53.77l-19.75-19L21.28,53.14.1,34.79V79.05H82.24V34.66Zm3.5,3.89L77,46.33V70.17ZM41,42,73.25,73.82H45.16L25.26,56.59ZM5.33,73.82V46.24L37.17,73.82Z" />
            <rect class="cls-2" x="93.86" y="11.53" width="1.53" height="105.68" />
            <path class="cls-2"
                d="M117.08,73.54v-41h26.28L147.17,65h.64l3.81-32.5h26.27V73.72l-15.22,7.66V42.92h-.74l-6.59,38.46h-15.7L133,42.92h-.67V81.38Z" />
            <path class="cls-2"
                d="M207.85,82.82a31.4,31.4,0,0,1-12.07-2,15.24,15.24,0,0,1-9.72-12.3,92.24,92.24,0,0,1-.63-13.22q0-8.54,1.18-12.48a13.69,13.69,0,0,1,4-6.46A19.52,19.52,0,0,1,198,32.4a37.44,37.44,0,0,1,19.78,0,19.52,19.52,0,0,1,7.31,3.93,13.59,13.59,0,0,1,4,6.46q1.2,3.95,1.19,14.19a74,74,0,0,1-.65,11.58,15.18,15.18,0,0,1-9.74,12.22A31.23,31.23,0,0,1,207.85,82.82ZM204,67.32a7,7,0,0,0,.95,4,3.34,3.34,0,0,0,2.9,1.32,3.26,3.26,0,0,0,2.84-1.31,7,7,0,0,0,.94-4.05V46.57a7,7,0,0,0-.94-4,3.25,3.25,0,0,0-2.84-1.3,3.34,3.34,0,0,0-2.9,1.32,6.94,6.94,0,0,0-.95,4Z" />
            <path class="cls-2" d="M287.27,73.54v-41h18.24V81.38Z" />
            <path class="cls-2" d="M314.41,81.38V32.51H352V44H332.31v7.6h17.94V62.34H332.31v7.59H352v3.61Z" />
            <path class="cls-3"
                d="M414.35,61.36q-.25,9.09-5.33,13.49t-15.33,4.39a28.5,28.5,0,0,1-11.06-1.87,15.23,15.23,0,0,1-7-5.71,14.49,14.49,0,0,1-2-5.55A81.74,81.74,0,0,1,373,54q0-7.89,1.09-11.58a12.55,12.55,0,0,1,3.72-6,18.1,18.1,0,0,1,6.74-3.62,31.07,31.07,0,0,1,9.12-1.22q10.16,0,15.33,4.38t5.31,13h-17V47.42a11.17,11.17,0,0,0-.81-5.05,2.94,2.94,0,0,0-2.79-1.45,3.09,3.09,0,0,0-2.69,1.2,6.5,6.5,0,0,0-.86,3.73V65a6.52,6.52,0,0,0,.86,3.73,3.09,3.09,0,0,0,2.69,1.2,3,3,0,0,0,2.83-1.5c.56-1,.83-2.72.83-5.19,0-.19,0-.48,0-.9s0-.72,0-1Z" />
            <path class="cls-3"
                d="M464.29,77.92v-45h21.8l10,32.9h.58L496,32.9h14.33v45h-21.7l-9.81-32.84h-.67l.55,32.84Z" />
            <path class="cls-3" d="M515.19,32.9h36.66V43.45h-10V77.92l-16.8-5.32V43.45h-9.9Z" />
            <path class="cls-3"
                d="M599.48,77.92v-45h24.88q8.16,0,11.95,2.9T640.08,45a10,10,0,0,1-2.19,6.78,11,11,0,0,1-6.6,3.33v.49q4.94.59,6.74,3t1.8,11.5c0,.35,0,.78,0,1.28s0,.84,0,1a10.18,10.18,0,0,0,.43,3.27,7.32,7.32,0,0,0,1.45,2.35H624.48a6.86,6.86,0,0,1-1.25-2.29,11.5,11.5,0,0,1-.38-3.26q0-1.05.09-3.18T623,66c0-2.79-.43-4.61-1.28-5.44s-2.51-1.25-5-1.25h-.92V77.92ZM616,50.63l.8,0,.77,0q4,0,5.68-1a3.75,3.75,0,0,0,1.69-3.48,3.87,3.87,0,0,0-1.72-3.53q-1.74-1.1-5.65-1.09l-.77,0-.8,0Z" />
            <path class="cls-3" d="M421.89,81.38V32.51h37.56V44H439.8v7.6h17.94V62.34H439.8v7.59h19.65v3.61Z" />
            <path class="cls-3" d="M557.1,81.38V32.51h37.55V44H575v7.6h17.94V62.34H575v7.59h19.65v3.61Z" />
            <path class="cls-2"
                d="M248.79,67.73l.09-.19a.62.62,0,0,1,.77-.36l1.06.52a.61.61,0,0,1,.2.83l-.1.18,10.38,5,.09-.19a.59.59,0,0,1,.76-.35l1.06.51a.61.61,0,0,1,.2.82l-.1.2.7.35L296.67,7.7l-.78-.38a.88.88,0,0,1-.06.29l-.31.64a.61.61,0,0,1-.77.35l-1.06-.5a.62.62,0,0,1-.19-.82l.31-.64a.76.76,0,0,1,.19-.25L283.5,1.3a.59.59,0,0,1-.07.29l-.31.64a.61.61,0,0,1-.77.36l-1.05-.52a.6.6,0,0,1-.19-.83l.31-.62a.63.63,0,0,1,.18-.24L280.83,0,248.07,67.38Zm31-62.47a.6.6,0,0,1-.2-.83l.31-.63a.6.6,0,0,1,.77-.36l1.05.52a.59.59,0,0,1,.19.82l-.3.63a.61.61,0,0,1-.77.36Zm12.38,6a.6.6,0,0,1-.19-.82l.31-.64a.63.63,0,0,1,.77-.36l1.05.52a.59.59,0,0,1,.19.83l-.3.63a.62.62,0,0,1-.77.36ZM278.2,8.45a.63.63,0,0,1-.19-.83l.31-.63a.62.62,0,0,1,.77-.36l1.06.52a.6.6,0,0,1,.18.82l-.3.63a.6.6,0,0,1-.77.36Zm12.39,6a.59.59,0,0,1-.18-.82l.31-.63a.57.57,0,0,1,.75-.36l1.06.52a.57.57,0,0,1,.18.81l-.29.63a.6.6,0,0,1-.77.36Zm-13.94-2.84a.6.6,0,0,1-.18-.82l.3-.64a.62.62,0,0,1,.77-.35l1,.51a.61.61,0,0,1,.2.83l-.3.63a.63.63,0,0,1-.78.36Zm12.4,6a.6.6,0,0,1-.2-.82l.31-.63a.61.61,0,0,1,.76-.36l1.06.51a.63.63,0,0,1,.2.83l-.31.63a.62.62,0,0,1-.77.36Zm-13.94-2.84a.6.6,0,0,1-.2-.82l.31-.62A.6.6,0,0,1,276,13l1.06.5a.63.63,0,0,1,.2.83l-.31.62a.59.59,0,0,1-.76.37Zm12.39,6a.61.61,0,0,1-.2-.83l.31-.62a.58.58,0,0,1,.76-.36l1.07.51a.61.61,0,0,1,.19.83l-.31.63a.59.59,0,0,1-.77.35ZM273.56,18a.6.6,0,0,1-.19-.83l.31-.63a.61.61,0,0,1,.76-.37l1.05.53a.59.59,0,0,1,.19.82l-.3.63a.62.62,0,0,1-.77.36ZM286,24a.59.59,0,0,1-.19-.82l.3-.63a.61.61,0,0,1,.76-.36l1.07.52a.59.59,0,0,1,.18.82l-.3.63a.6.6,0,0,1-.77.36ZM272,21.18a.57.57,0,0,1-.19-.81l.3-.63a.62.62,0,0,1,.77-.36l1.05.5a.62.62,0,0,1,.2.84l-.31.63a.6.6,0,0,1-.76.36Zm12.39,6a.6.6,0,0,1-.2-.81l.31-.65a.61.61,0,0,1,.77-.34l1.05.5a.59.59,0,0,1,.19.83l-.3.63a.59.59,0,0,1-.76.35Zm-13.94-2.84a.58.58,0,0,1-.19-.82l.3-.63a.58.58,0,0,1,.77-.34l1.06.5a.61.61,0,0,1,.19.82l-.3.63a.61.61,0,0,1-.78.36Zm12.38,6a.58.58,0,0,1-.18-.81l.31-.64a.6.6,0,0,1,.75-.36l1.07.52a.61.61,0,0,1,.19.83l-.32.63a.59.59,0,0,1-.76.35Zm-13.93-2.83a.6.6,0,0,1-.19-.82l.3-.63a.61.61,0,0,1,.77-.36l1.06.51a.62.62,0,0,1,.2.82l-.32.64a.61.61,0,0,1-.77.36Zm12.39,6a.61.61,0,0,1-.19-.83l.3-.63a.59.59,0,0,1,.77-.35l1.05.51a.61.61,0,0,1,.2.82l-.31.63a.61.61,0,0,1-.76.36Zm-13.95-2.83a.62.62,0,0,1-.18-.83l.3-.62a.59.59,0,0,1,.78-.36l1.05.51a.59.59,0,0,1,.18.82l-.3.62a.61.61,0,0,1-.76.37Zm12.4,6a.64.64,0,0,1-.2-.83l.3-.63a.64.64,0,0,1,.78-.36l1.05.52a.59.59,0,0,1,.2.82l-.3.62a.6.6,0,0,1-.77.36Zm-13.94-2.84a.62.62,0,0,1-.19-.83l.3-.63a.62.62,0,0,1,.77-.36l1.06.52a.6.6,0,0,1,.19.82l-.31.64a.6.6,0,0,1-.76.35Zm12.39,6a.58.58,0,0,1-.19-.81l.3-.64a.62.62,0,0,1,.77-.35l1.06.51a.61.61,0,0,1,.19.83l-.31.63a.61.61,0,0,1-.77.36Zm-13.94-2.83a.59.59,0,0,1-.18-.82l.3-.64a.61.61,0,0,1,.77-.35l1.05.51a.61.61,0,0,1,.2.82l-.31.63a.59.59,0,0,1-.77.36Zm12.39,6a.62.62,0,0,1-.2-.83l.32-.63a.6.6,0,0,1,.76-.36l1.05.52a.61.61,0,0,1,.2.83l-.31.62a.59.59,0,0,1-.76.36Zm-13.94-2.83a.62.62,0,0,1-.19-.83l.31-.64a.61.61,0,0,1,.77-.35l1,.52a.6.6,0,0,1,.2.82l-.31.63a.59.59,0,0,1-.77.35Zm12.4,6a.6.6,0,0,1-.2-.82l.31-.63a.6.6,0,0,1,.76-.35L277,45a.59.59,0,0,1,.2.82l-.31.63a.61.61,0,0,1-.77.36ZM261.17,43.5a.62.62,0,0,1-.2-.82l.31-.63a.6.6,0,0,1,.77-.36l1.05.51a.59.59,0,0,1,.19.82l-.3.64a.61.61,0,0,1-.77.36Zm12.39,6a.59.59,0,0,1-.2-.82l.31-.63a.61.61,0,0,1,.76-.36l1.06.51a.6.6,0,0,1,.2.82l-.32.63a.59.59,0,0,1-.76.37Zm-13.94-2.83a.6.6,0,0,1-.2-.82l.31-.65a.62.62,0,0,1,.77-.35l1.05.52a.61.61,0,0,1,.19.83l-.3.63a.6.6,0,0,1-.77.34Zm12.38,6a.6.6,0,0,1-.19-.83l.31-.63a.61.61,0,0,1,.76-.36l1.06.52a.6.6,0,0,1,.19.82l-.31.63a.6.6,0,0,1-.76.37Zm-13.93-2.84a.62.62,0,0,1-.2-.82l.31-.63a.62.62,0,0,1,.77-.36l1.05.52a.61.61,0,0,1,.2.82l-.31.63a.6.6,0,0,1-.77.36Zm12.39,6a.59.59,0,0,1-.19-.82l.29-.63a.61.61,0,0,1,.78-.35l1.05.51a.59.59,0,0,1,.19.82l-.31.64a.57.57,0,0,1-.75.34Zm-13.94-2.83a.61.61,0,0,1-.2-.82l.31-.64a.61.61,0,0,1,.77-.35l1.06.51a.59.59,0,0,1,.18.83l-.3.62a.6.6,0,0,1-.76.36Zm12.38,6a.62.62,0,0,1-.19-.82l.31-.64a.6.6,0,0,1,.77-.36l1,.51a.6.6,0,0,1,.2.83l-.31.62a.6.6,0,0,1-.77.36ZM255,56.24a.59.59,0,0,1-.21-.82l.31-.63a.6.6,0,0,1,.77-.36l1,.52a.61.61,0,0,1,.2.83l-.3.62a.62.62,0,0,1-.77.36Zm12.38,6a.58.58,0,0,1-.19-.81l.3-.63a.62.62,0,0,1,.77-.37l1.05.52a.61.61,0,0,1,.2.82l-.31.64a.61.61,0,0,1-.77.35Zm-13.94-2.82a.62.62,0,0,1-.2-.83l.31-.63a.6.6,0,0,1,.77-.36l1,.52a.58.58,0,0,1,.2.82l-.31.62a.62.62,0,0,1-.77.37Zm12.39,6a.6.6,0,0,1-.19-.82l.3-.63a.61.61,0,0,1,.77-.37l1.05.52a.6.6,0,0,1,.2.82l-.31.63a.62.62,0,0,1-.76.37Zm-13.94-2.84a.61.61,0,0,1-.19-.83l.31-.63a.62.62,0,0,1,.77-.36l1.05.52a.62.62,0,0,1,.19.83l-.31.62a.59.59,0,0,1-.76.36Zm12.39,6a.6.6,0,0,1-.2-.83l.3-.62a.64.64,0,0,1,.78-.36l1.05.51a.61.61,0,0,1,.2.83l-.31.63a.61.61,0,0,1-.76.36ZM250.32,65.8a.6.6,0,0,1-.19-.82l.3-.63a.61.61,0,0,1,.77-.36l1.06.52a.59.59,0,0,1,.19.82l-.3.64a.6.6,0,0,1-.77.35Zm12.39,6a.6.6,0,0,1-.19-.83l.3-.62a.61.61,0,0,1,.77-.36l1.06.51a.6.6,0,0,1,.19.83l-.3.62a.6.6,0,0,1-.77.36Z" />
            <path class="cls-3"
                d="M237.52,13.41l-.81.4a.39.39,0,0,1,.18.18l.22.44a.46.46,0,0,1-.2.6l-.84.41a.45.45,0,0,1-.59-.22l-.2-.44a.5.5,0,0,1-.05-.25l-10.43,5a.42.42,0,0,1,.13.16l.21.44a.43.43,0,0,1-.19.59l-.84.41a.43.43,0,0,1-.59-.22l-.22-.43a.71.71,0,0,1,0-.21l-.79.37,30.39,62.85.78-.39a.62.62,0,0,1-.16-.19l-.21-.43a.45.45,0,0,1,.18-.6l.85-.41a.44.44,0,0,1,.58.23l.22.43a.61.61,0,0,1,0,.26l10.43-5a1,1,0,0,1-.13-.16l-.21-.44a.43.43,0,0,1,.19-.59l.85-.42a.42.42,0,0,1,.57.23l.22.43a.72.72,0,0,1,.05.21l.77-.37Zm-1,4-.21-.44a.45.45,0,0,1,.19-.6l.86-.42a.46.46,0,0,1,.57.23l.21.44a.43.43,0,0,1-.18.6l-.85.41A.46.46,0,0,1,236.55,17.43Zm1.08,2.21-.22-.43a.45.45,0,0,1,.2-.61l.84-.4a.44.44,0,0,1,.59.22l.21.44a.45.45,0,0,1-.19.6l-.85.41A.45.45,0,0,1,237.63,19.64Zm1.07,2.22-.22-.45a.44.44,0,0,1,.18-.59l.85-.4a.44.44,0,0,1,.6.21l.21.44a.44.44,0,0,1-.19.6l-.84.41A.44.44,0,0,1,238.7,21.86Zm15.13,57.65.2.45a.43.43,0,0,1-.18.59L253,81a.43.43,0,0,1-.57-.22l-.22-.44a.44.44,0,0,1,.18-.6l.85-.41A.46.46,0,0,1,253.83,79.51Zm-1.08-2.21.22.44a.45.45,0,0,1-.19.6l-.85.4a.44.44,0,0,1-.58-.23l-.21-.43a.42.42,0,0,1,.19-.59l.84-.41A.43.43,0,0,1,252.75,77.3Zm-1.07-2.22.21.44a.44.44,0,0,1-.18.6l-.86.4a.43.43,0,0,1-.58-.22l-.21-.44a.45.45,0,0,1,.19-.59l.85-.41A.43.43,0,0,1,251.68,75.08ZM240.59,22.62a.44.44,0,0,1,.58.23l.22.44a.44.44,0,0,1-.2.59l-.84.42a.44.44,0,0,1-.58-.23l-.22-.44a.47.47,0,0,1,.19-.6Zm-16,.54-.21-.44a.45.45,0,0,1,.19-.6l.85-.41a.42.42,0,0,1,.57.23l.22.43a.46.46,0,0,1-.18.6l-.86.41A.44.44,0,0,1,224.59,23.16Zm17.07,1.69a.44.44,0,0,1,.59.22l.2.43a.43.43,0,0,1-.19.6l-.84.4a.43.43,0,0,1-.58-.22l-.21-.43a.45.45,0,0,1,.18-.61Zm-16,.52-.21-.44a.42.42,0,0,1,.18-.59l.87-.42a.46.46,0,0,1,.58.23l.19.43a.44.44,0,0,1-.18.6l-.85.42A.45.45,0,0,1,225.66,25.37Zm17.07,1.69a.43.43,0,0,1,.58.21l.22.44a.47.47,0,0,1-.19.62l-.85.4a.44.44,0,0,1-.58-.23l-.22-.45a.45.45,0,0,1,.2-.59Zm-16,.53-.21-.44a.44.44,0,0,1,.18-.6l.85-.41a.43.43,0,0,1,.58.22l.2.44a.42.42,0,0,1-.18.59l-.84.41A.41.41,0,0,1,226.74,27.59Zm17,1.67a.46.46,0,0,1,.59.23l.21.44a.44.44,0,0,1-.18.6l-.85.41a.44.44,0,0,1-.59-.23l-.21-.43a.45.45,0,0,1,.19-.6Zm-16,.53-.21-.43a.45.45,0,0,1,.19-.59l.84-.42a.44.44,0,0,1,.59.24l.21.43a.42.42,0,0,1-.19.59l-.84.42A.46.46,0,0,1,227.8,29.79Zm17.07,1.7a.42.42,0,0,1,.58.22l.22.43a.47.47,0,0,1-.19.61l-.84.41a.46.46,0,0,1-.6-.23l-.21-.45a.42.42,0,0,1,.19-.58Zm-16,.52-.21-.44a.43.43,0,0,1,.19-.59l.85-.41a.44.44,0,0,1,.58.22l.21.45a.41.41,0,0,1-.19.58l-.85.42A.44.44,0,0,1,228.87,32Zm17.07,1.69a.45.45,0,0,1,.59.22l.2.43a.43.43,0,0,1-.18.61l-.84.41a.44.44,0,0,1-.59-.23l-.21-.43a.43.43,0,0,1,.19-.6Zm-16,.53-.21-.44a.45.45,0,0,1,.19-.59l.84-.42a.45.45,0,0,1,.59.23l.2.43a.43.43,0,0,1-.18.6l-.83.42A.46.46,0,0,1,229.94,34.23ZM247,35.92a.45.45,0,0,1,.59.22l.21.43a.44.44,0,0,1-.19.6l-.85.41a.43.43,0,0,1-.58-.21l-.21-.46a.42.42,0,0,1,.19-.59Zm-16,.52L230.8,36a.45.45,0,0,1,.19-.6l.84-.41a.44.44,0,0,1,.59.23l.21.42a.46.46,0,0,1-.18.61l-.86.41A.43.43,0,0,1,231,36.44Zm17.06,1.68a.46.46,0,0,1,.59.23l.2.44a.45.45,0,0,1-.18.6l-.85.41a.46.46,0,0,1-.59-.23l-.21-.43a.45.45,0,0,1,.19-.6Zm-16,.54-.22-.44a.43.43,0,0,1,.19-.59l.84-.42a.45.45,0,0,1,.59.23l.22.44a.45.45,0,0,1-.2.6l-.84.4A.44.44,0,0,1,232.09,38.66Zm17.06,1.68a.45.45,0,0,1,.58.23L250,41a.43.43,0,0,1-.19.59l-.85.42a.42.42,0,0,1-.58-.22l-.22-.44a.46.46,0,0,1,.19-.6Zm-16,.53-.21-.43a.46.46,0,0,1,.19-.6l.85-.42a.44.44,0,0,1,.58.23l.21.44a.44.44,0,0,1-.18.6l-.85.4A.45.45,0,0,1,233.15,40.87Zm17.08,1.68a.46.46,0,0,1,.58.22l.21.45a.45.45,0,0,1-.19.6l-.84.39a.42.42,0,0,1-.59-.2l-.22-.44a.45.45,0,0,1,.19-.6Zm-16,.55-.22-.45a.45.45,0,0,1,.19-.61l.86-.4a.43.43,0,0,1,.57.23l.22.44a.46.46,0,0,1-.19.6l-.84.4A.44.44,0,0,1,234.23,43.1Zm17.07,1.66a.45.45,0,0,1,.57.23l.21.44a.44.44,0,0,1-.18.6l-.85.41a.45.45,0,0,1-.59-.22l-.2-.44a.44.44,0,0,1,.18-.6Zm-16,.55-.21-.44a.46.46,0,0,1,.19-.61l.85-.41a.47.47,0,0,1,.58.23l.21.43a.44.44,0,0,1-.18.6l-.85.42A.45.45,0,0,1,235.29,45.31ZM252.36,47a.44.44,0,0,1,.59.22l.2.43a.43.43,0,0,1-.17.6l-.86.41a.44.44,0,0,1-.58-.21l-.21-.45a.46.46,0,0,1,.18-.6Zm-16,.53-.21-.44a.43.43,0,0,1,.2-.6l.84-.41a.46.46,0,0,1,.59.23l.21.43a.46.46,0,0,1-.19.6l-.85.41A.47.47,0,0,1,236.36,47.52Zm17.08,1.68a.45.45,0,0,1,.58.22l.21.46a.45.45,0,0,1-.19.58l-.85.41a.45.45,0,0,1-.58-.23l-.21-.44a.43.43,0,0,1,.18-.59Zm-16,.53-.21-.43a.45.45,0,0,1,.19-.61l.85-.41a.46.46,0,0,1,.59.23l.2.44a.43.43,0,0,1-.19.59L238,50A.45.45,0,0,1,237.43,49.73Zm17.08,1.68a.44.44,0,0,1,.58.23l.21.44a.44.44,0,0,1-.19.6l-.84.41a.44.44,0,0,1-.59-.23l-.21-.43a.45.45,0,0,1,.19-.61Zm-16,.53-.21-.43a.44.44,0,0,1,.19-.6l.85-.41a.43.43,0,0,1,.58.23l.21.44a.42.42,0,0,1-.19.59l-.85.41A.44.44,0,0,1,238.5,51.94Zm17.06,1.68a.47.47,0,0,1,.6.23l.2.44a.45.45,0,0,1-.18.61l-.85.39a.43.43,0,0,1-.57-.21l-.23-.45a.44.44,0,0,1,.19-.59Zm-16,.54-.21-.44a.45.45,0,0,1,.19-.6l.85-.41A.45.45,0,0,1,241,53l.21.43a.44.44,0,0,1-.18.6l-.86.4A.43.43,0,0,1,239.57,54.16Zm17.08,1.69a.43.43,0,0,1,.58.22l.21.43a.45.45,0,0,1-.19.61l-.84.4a.44.44,0,0,1-.59-.22l-.22-.44a.45.45,0,0,1,.2-.6Zm-16,.53-.21-.44a.43.43,0,0,1,.19-.6l.84-.41a.44.44,0,0,1,.58.22l.21.44a.44.44,0,0,1-.18.6l-.85.4A.42.42,0,0,1,240.65,56.38Zm17.07,1.68a.44.44,0,0,1,.58.22l.21.44a.44.44,0,0,1-.18.59l-.85.42a.44.44,0,0,1-.59-.22l-.22-.45a.44.44,0,0,1,.2-.59Zm-16,.53-.22-.45a.44.44,0,0,1,.19-.59l.85-.4a.43.43,0,0,1,.59.23l.2.42a.45.45,0,0,1-.18.61l-.86.4A.43.43,0,0,1,241.72,58.59Zm17.06,1.68a.44.44,0,0,1,.58.23l.22.44a.44.44,0,0,1-.19.59l-.85.41a.44.44,0,0,1-.58-.23l-.21-.42a.45.45,0,0,1,.19-.61Zm-16,.53-.21-.44a.44.44,0,0,1,.19-.59l.85-.41a.45.45,0,0,1,.59.22l.2.45a.43.43,0,0,1-.18.59l-.85.41A.48.48,0,0,1,242.78,60.8Zm17.07,1.69a.46.46,0,0,1,.59.22l.21.44a.43.43,0,0,1-.19.6l-.84.41a.47.47,0,0,1-.59-.23l-.21-.43a.43.43,0,0,1,.19-.59Zm-16,.53-.21-.44a.44.44,0,0,1,.18-.6l.85-.41a.46.46,0,0,1,.59.23l.21.44a.45.45,0,0,1-.19.59l-.85.42A.44.44,0,0,1,243.86,63Zm17.07,1.68a.43.43,0,0,1,.57.22l.22.45a.45.45,0,0,1-.19.6l-.84.4a.45.45,0,0,1-.59-.22l-.21-.44a.44.44,0,0,1,.19-.6Zm-16,.53-.21-.44a.46.46,0,0,1,.19-.6l.85-.4a.44.44,0,0,1,.58.21l.21.45a.45.45,0,0,1-.18.6l-.85.4A.44.44,0,0,1,244.92,65.23ZM262,66.91a.45.45,0,0,1,.59.24l.22.43a.47.47,0,0,1-.19.6l-.86.39a.42.42,0,0,1-.58-.21l-.21-.44a.42.42,0,0,1,.19-.59Zm-16,.53-.21-.43a.42.42,0,0,1,.18-.59l.85-.42a.44.44,0,0,1,.58.22l.21.45a.44.44,0,0,1-.18.59l-.86.41A.43.43,0,0,1,246,67.44Zm17.07,1.69a.43.43,0,0,1,.58.23l.2.44a.41.41,0,0,1-.17.58l-.85.42a.45.45,0,0,1-.59-.22l-.22-.45a.45.45,0,0,1,.2-.59Zm-16,.53-.22-.44a.43.43,0,0,1,.19-.59l.85-.41a.45.45,0,0,1,.59.22l.21.44a.45.45,0,0,1-.2.6l-.84.4A.43.43,0,0,1,247.07,69.66Zm17.06,1.68a.45.45,0,0,1,.59.23l.22.44a.45.45,0,0,1-.2.59l-.84.41a.43.43,0,0,1-.59-.23l-.21-.43a.43.43,0,0,1,.19-.6Zm-16,.55-.21-.45a.44.44,0,0,1,.18-.6l.85-.41a.46.46,0,0,1,.59.22l.21.45a.42.42,0,0,1-.19.58l-.84.42A.45.45,0,0,1,248.14,71.89Zm17.07,1.68a.42.42,0,0,1,.57.21l.22.44a.45.45,0,0,1-.19.61l-.85.4a.43.43,0,0,1-.57-.23l-.23-.44a.44.44,0,0,1,.19-.59Zm-15.42.74a.43.43,0,0,1-.58-.23l-.21-.43a.42.42,0,0,1,.18-.59l.85-.42a.45.45,0,0,1,.58.24l.22.42a.44.44,0,0,1-.19.6Z" />
            <path class="cls-4" d="M117.42,92h9.93v1.4h-4.21v12.51h-1.45V93.43h-4.27Z" />
            <path class="cls-4" d="M151.61,92h1.45v5.83h7.39V92h1.44v13.91h-1.44V99.21h-7.39v6.73h-1.45Z" />
            <path class="cls-4" d="M187.49,92H196v1.35h-7V97.8h6.22v1.37h-6.22v5.43h7.17v1.34h-8.61Z" />
            <path class="cls-4"
                d="M249.1,92h1.45v7.71l6.9-7.71h2l-5.5,6,6.47,7.92H258.5L253,99l-2.44,2.59v4.35H249.1Z" />
            <path class="cls-4" d="M280,92h1.44v13.91H280Z" />
            <path class="cls-4"
                d="M302.84,92h1.52l8.39,11.6.06-.09V92h1.44v13.91H312.7l-8.41-11.73h-.09l.09,11.73h-1.45Z" />
            <path class="cls-4"
                d="M347.34,96.15H345.8a4.37,4.37,0,0,0-1.54-2.35,4.21,4.21,0,0,0-2.65-.83,4.61,4.61,0,0,0-3.7,1.67A6.4,6.4,0,0,0,336.48,99a6.57,6.57,0,0,0,1.43,4.37,4.59,4.59,0,0,0,3.66,1.69A4.25,4.25,0,0,0,346,100.6v-.08h-2.51V99.25h3.91v6.69h-1.08l-.09-2.25a4.73,4.73,0,0,1-1.88,2,5.72,5.72,0,0,1-2.85.68,6.78,6.78,0,0,1-2.15-.33,5.58,5.58,0,0,1-1.8-1,7.21,7.21,0,0,1-2-2.64,9,9,0,0,1-.23-6.36,7.56,7.56,0,0,1,1.48-2.41,6.11,6.11,0,0,1,2.1-1.52,6.31,6.31,0,0,1,2.59-.53,6.09,6.09,0,0,1,3.82,1.19A5.7,5.7,0,0,1,347.34,96.15Z" />
            <path class="cls-4"
                d="M368.25,92h4.54a7.68,7.68,0,0,1,5.49,1.83,6.7,6.7,0,0,1,2,5.14,6.79,6.79,0,0,1-1.91,5.08,7.16,7.16,0,0,1-5.21,1.86h-4.86Zm1.45,1.35V104.6h3a6.18,6.18,0,0,0,4.41-1.41,6.67,6.67,0,0,0,0-8.39,6.14,6.14,0,0,0-4.4-1.42Z" />
            <path class="cls-4"
                d="M406.7,91.64a6.54,6.54,0,0,1,2.35.43,5.8,5.8,0,0,1,2,1.23,7.41,7.41,0,0,1,1.74,2.52,8.3,8.3,0,0,1,.58,3.18,8.59,8.59,0,0,1-.52,2.94,7.28,7.28,0,0,1-1.49,2.44,6,6,0,0,1-2.08,1.48,6.74,6.74,0,0,1-5.19-.06,5.74,5.74,0,0,1-2.09-1.56,7.52,7.52,0,0,1-1.44-2.39,8.52,8.52,0,0,1-.46-2.85,8.24,8.24,0,0,1,.48-2.9A7.45,7.45,0,0,1,402,93.69a6,6,0,0,1,2.09-1.51A6.36,6.36,0,0,1,406.7,91.64Zm0,1.35a4.46,4.46,0,0,0-3.6,1.71,6.75,6.75,0,0,0-1.4,4.41,6.33,6.33,0,0,0,1.41,4.24,4.74,4.74,0,0,0,7.22,0,6.55,6.55,0,0,0,1.4-4.33,6.44,6.44,0,0,0-1.42-4.32A4.49,4.49,0,0,0,406.68,93Z" />
            <path class="cls-4"
                d="M433.9,92h1.55l5.47,12.07H441L446.48,92h1.57v13.91h-1.41l.1-11.56h-.1l-5.09,11.56h-1.17l-5.09-11.56h-.12l.12,11.56H433.9Z" />
            <path class="cls-4"
                d="M492.59,92h1.55l5.47,12.07h.07L505.17,92h1.57v13.91h-1.41l.1-11.56h-.1l-5.09,11.56h-1.17L494,94.38h-.12l.12,11.56h-1.39Z" />
            <path class="cls-4"
                d="M538.22,91.64a6.54,6.54,0,0,1,2.35.43,5.67,5.67,0,0,1,1.95,1.23,7.3,7.3,0,0,1,1.75,2.52,8.49,8.49,0,0,1,.58,3.18,8.59,8.59,0,0,1-.52,2.94,7.28,7.28,0,0,1-1.49,2.44,6.13,6.13,0,0,1-2.08,1.48,6.74,6.74,0,0,1-5.19-.06,5.74,5.74,0,0,1-2.09-1.56,7.52,7.52,0,0,1-1.44-2.39,8.52,8.52,0,0,1-.46-2.85,8.24,8.24,0,0,1,.48-2.9,7.59,7.59,0,0,1,1.47-2.41,6.06,6.06,0,0,1,2.1-1.51A6.33,6.33,0,0,1,538.22,91.64Zm0,1.35a4.43,4.43,0,0,0-3.6,1.71,6.75,6.75,0,0,0-1.4,4.41,6.33,6.33,0,0,0,1.41,4.24,4.73,4.73,0,0,0,7.21,0,7.32,7.32,0,0,0,0-8.65A4.5,4.5,0,0,0,538.2,93Z" />
            <path class="cls-4" d="M567.69,92.05h1.57l4.91,12.33h.1l4.85-12.33h1.58L575,106h-1.58Z" />
            <path class="cls-4" d="M604.75,92h1.45v13.91h-1.45Z" />
            <path class="cls-4" d="M631.86,92h8.49v1.35h-7V97.8h6.22v1.37h-6.22v5.43h7.17v1.34h-8.62Z" />
        </g>
    </g>
</svg>